<?xml version="1.0" standalone="no"?><!DOCTYPE svg PUBLIC "-//W3C//DTD SVG 1.1//EN" "http://www.w3.org/Graphics/SVG/1.1/DTD/svg11.dtd"><svg t="1653117687188" class="icon" viewBox="0 0 1024 1024" version="1.1" xmlns="http://www.w3.org/2000/svg" p-id="6195" xmlns:xlink="http://www.w3.org/1999/xlink" width="200" height="200"><defs><style type="text/css"></style></defs><path d="M286.72 143.36v10.6496a61.44 61.44 0 0 1-21.36064 46.55104C252.29312 211.82464 245.76 226.87744 245.76 245.76a61.44 61.44 0 1 0 122.88 0c0-18.88256-6.53312-33.95584-19.59936-45.19936A61.44 61.44 0 0 1 327.68 154.0096V143.36a20.48 20.48 0 0 1 20.48-20.48h122.88a20.48 20.48 0 0 1 20.48 20.48v10.6496a61.44 61.44 0 0 1-21.36064 46.55104C457.09312 211.82464 450.56 226.87744 450.56 245.76a61.44 61.44 0 1 0 122.88 0c0-18.88256-6.53312-33.95584-19.59936-45.19936A61.44 61.44 0 0 1 532.48 154.0096V143.36a20.48 20.48 0 0 1 20.48-20.48h122.88a20.48 20.48 0 0 1 20.48 20.48v10.6496a61.44 61.44 0 0 1-21.36064 46.55104C661.89312 211.82464 655.36 226.87744 655.36 245.76a61.44 61.44 0 1 0 122.88 0c0-18.88256-6.53312-33.95584-19.59936-45.19936A61.44 61.44 0 0 1 737.28 154.0096V143.36a20.48 20.48 0 0 1 20.48-20.48h61.44a81.92 81.92 0 0 1 81.92 81.92v450.56c0 135.72096-110.03904 245.76-245.76 245.76H368.64c-135.72096 0-245.76-110.03904-245.76-245.76V204.8a81.92 81.92 0 0 1 81.92-81.92h61.44a20.48 20.48 0 0 1 20.48 20.48z m27.648 286.72c-15.27808 0-27.648 13.76256-27.648 30.72s12.36992 30.72 27.648 30.72h395.264c15.27808 0 27.648-13.76256 27.648-30.72s-12.36992-30.72-27.648-30.72h-395.264z m0 122.88c-15.27808 0-27.648 13.76256-27.648 30.72s12.36992 30.72 27.648 30.72h395.264c15.27808 0 27.648-13.76256 27.648-30.72s-12.36992-30.72-27.648-30.72h-395.264z m3.072 122.88a30.72 30.72 0 1 0 0 61.44h184.32a30.72 30.72 0 1 0 0-61.44h-184.32z" p-id="6196"></path></svg>