<?xml version="1.0" standalone="no"?><!DOCTYPE svg PUBLIC "-//W3C//DTD SVG 1.1//EN" "http://www.w3.org/Graphics/SVG/1.1/DTD/svg11.dtd"><svg t="1653117715556" class="icon" viewBox="0 0 1024 1024" version="1.1" xmlns="http://www.w3.org/2000/svg" p-id="6337" xmlns:xlink="http://www.w3.org/1999/xlink" width="200" height="200"><defs><style type="text/css"></style></defs><path d="M898.368 64 128 64l0 128L34.368 192C16.768 192 0 204.512 0 222.112l0 64C0 303.744 16.768 320 34.368 320L128 320l0 64L34.368 384C16.768 384 0 396.544 0 414.112l0 64C0 495.744 16.768 512 34.368 512L128 512l0 64L34.368 576C16.768 576 0 588.544 0 606.144l0 64C0 687.712 16.768 704 34.368 704L128 704l0 64L34.368 768C16.768 768 0 780.544 0 798.144l0 64C0 879.712 16.768 896 34.368 896L128 896l0 128 770.368 0c35.36 0 61.632-30.528 61.632-65.856l0-832C960 90.784 933.696 64 898.368 64zM320 960 192 960l0-64 34.368 0c17.6 0 29.632-16.256 29.632-33.856l0-64c0-17.6-12.032-30.144-29.632-30.144L192 768l0-64 34.368 0c17.6 0 29.632-16.256 29.632-33.856l0-64c0-17.6-12.032-30.144-29.632-30.144L192 576l0-64 34.368 0c17.6 0 29.632-16.256 29.632-33.856l0-64c0-17.6-12.032-30.144-29.632-30.144L192 384l0-64 34.368 0c17.6 0 29.632-16.256 29.632-33.856l0-64C256 204.512 243.968 192 226.368 192L192 192 192 128l128 0L320 960z" p-id="6338"></path></svg>